<?xml version="1.0" encoding="UTF-8"?>
<svg width="700pt" height="700pt" version="1.1" viewBox="0 0 700 600" xmlns="http://www.w3.org/2000/svg">
<!-- Saepul Nahwan from Noun project -->
 <path d="m350 35c-64.977 0-127.29 25.812-173.24 71.758-45.945 45.949-71.758 108.27-71.758 173.24s25.812 127.29 71.758 173.24c45.949 45.945 108.27 71.758 173.24 71.758s127.29-25.812 173.24-71.758c45.945-45.949 71.758-108.27 71.758-173.24-0.070312-64.957-25.902-127.23-71.836-173.16-45.93-45.934-108.21-71.766-173.16-71.836zm17.5 350c0 6.2539-3.3359 12.031-8.75 15.156s-12.086 3.125-17.5 0-8.75-8.9023-8.75-15.156v-122.5c0-6.2539 3.3359-12.031 8.75-15.156s12.086-3.125 17.5 0 8.75 8.9023 8.75 15.156zm0-192.5c0 6.2539-3.3359 12.031-8.75 15.156s-12.086 3.125-17.5 0-8.75-8.9023-8.75-15.156v-17.5c0-6.2539 3.3359-12.031 8.75-15.156s12.086-3.125 17.5 0 8.75 8.9023 8.75 15.156z"/>
</svg>
