<?xml version="1.0" encoding="UTF-8"?>
<svg width="700pt" height="700pt" version="1.1" viewBox="0 0 700 600" xmlns="http://www.w3.org/2000/svg" xmlns:xlink="http://www.w3.org/1999/xlink">
<!-- created by perametade games from noun project -->
 <g>
  <path d="m498.4 84h-296.8c-26.246 0-47.602 21.352-47.602 47.602v296.8c0 26.246 21.352 47.602 47.602 47.602h296.8c26.246 0 47.602-21.352 47.602-47.602v-296.8c0-26.25-21.352-47.602-47.602-47.602z"/>
  <use x="70" y="644" xlink:href="#t"/>
  <use x="90.550781" y="644" xlink:href="#d"/>
  <use x="104.359375" y="644" xlink:href="#a"/>
  <use x="123.347656" y="644" xlink:href="#c"/>
  <use x="142.242188" y="644" xlink:href="#b"/>
  <use x="155.628906" y="644" xlink:href="#a"/>
  <use x="174.617188" y="644" xlink:href="#h"/>
  <use x="204.410156" y="644" xlink:href="#j"/>
  <use x="224.453125" y="644" xlink:href="#i"/>
  <use x="252.453125" y="644" xlink:href="#g"/>
  <use x="272.972656" y="644" xlink:href="#a"/>
  <use x="291.960938" y="644" xlink:href="#d"/>
  <use x="305.773438" y="644" xlink:href="#c"/>
  <use x="324.664062" y="644" xlink:href="#f"/>
  <use x="353.84375" y="644" xlink:href="#a"/>
  <use x="372.832031" y="644" xlink:href="#b"/>
  <use x="386.21875" y="644" xlink:href="#c"/>
  <use x="405.109375" y="644" xlink:href="#h"/>
  <use x="425.15625" y="644" xlink:href="#a"/>
  <use x="453.890625" y="644" xlink:href="#s"/>
  <use x="476.875" y="644" xlink:href="#c"/>
  <use x="495.769531" y="644" xlink:href="#f"/>
  <use x="524.945312" y="644" xlink:href="#a"/>
  <use x="543.9375" y="644" xlink:href="#r"/>
  <use x="70" y="672" xlink:href="#q"/>
  <use x="82.183594" y="672" xlink:href="#d"/>
  <use x="95.992188" y="672" xlink:href="#e"/>
  <use x="115.226562" y="672" xlink:href="#f"/>
  <use x="154.152344" y="672" xlink:href="#b"/>
  <use x="167.535156" y="672" xlink:href="#p"/>
  <use x="187.46875" y="672" xlink:href="#a"/>
  <use x="216.207031" y="672" xlink:href="#o"/>
  <use x="239.640625" y="672" xlink:href="#e"/>
  <use x="258.878906" y="672" xlink:href="#n"/>
  <use x="278.8125" y="672" xlink:href="#m"/>
  <use x="308.492188" y="672" xlink:href="#g"/>
  <use x="329.015625" y="672" xlink:href="#d"/>
  <use x="342.820312" y="672" xlink:href="#e"/>
  <use x="362.058594" y="672" xlink:href="#l"/>
  <use x="371.65625" y="672" xlink:href="#a"/>
  <use x="390.648438" y="672" xlink:href="#k"/>
  <use x="407.242188" y="672" xlink:href="#b"/>
 </g>
</svg>
